<?xml version="1.0" encoding="UTF-8"?>
<svg id="Capa_1" data-name="Capa 1" xmlns="http://www.w3.org/2000/svg" viewBox="0 0 19 17">
  <defs>
    <style>
      .cls-1 {
        fill: #fff;
      }
    </style>
  </defs>
  <g id="Grupo_98" data-name="Grupo 98">
    <path id="Trazado_102" data-name="Trazado 102" class="cls-1" d="M.79,13.94s.02-.05,.03-.07c.13-.57,.64-.96,1.22-.95,1.21,0,2.42,0,3.62,0h10.63c.63-.04,1.18,.42,1.26,1.04,.04,.27,.03,.54-.02,.8-.11,.53-.56,.93-1.11,.95H2.12c-.49,.03-.95-.22-1.18-.65-.06-.12-.11-.25-.15-.38v-.75Z"/>
    <path id="Trazado_103" data-name="Trazado 103" class="cls-1" d="M10.94,6.63h1.91c.29-.01,.53,.21,.54,.5,0,.09-.02,.19-.06,.27-.03,.06-.07,.11-.12,.15-1.2,1.26-2.4,2.51-3.6,3.77-.17,.23-.5,.27-.73,.1-.04-.03-.07-.06-.1-.1-1.2-1.26-2.4-2.51-3.6-3.77-.18-.15-.23-.4-.14-.61,.09-.21,.31-.34,.54-.32h1.86v-.2c0-1.23,.02-2.46,0-3.69-.05-.51,.33-.97,.84-1.02,.06,0,.12,0,.18,0,.5,.03,.99,.03,1.49,0,.51-.04,.95,.34,.99,.85,0,.04,0,.09,0,.13-.02,1.23,0,2.47,0,3.7v.22Z"/>
  </g>
</svg>