<?xml version="1.0" encoding="UTF-8"?>
<svg id="Capa_1" data-name="Capa 1" xmlns="http://www.w3.org/2000/svg" viewBox="0 0 30 17">
  <defs>
    <style>
      .cls-1 {
        fill: #fff;
        stroke: #fff;
      }
    </style>
  </defs>
  <path id="Trazado_104" data-name="Trazado 104" class="cls-1" d="M27.77,8.5c-.16,.55-.71,.91-1.28,.83-7.04-.01-14.08-.01-21.12,0h-.35c.11,.12,.18,.2,.26,.27,1.1,1.1,2.21,2.2,3.31,3.3,.29,.26,.39,.67,.28,1.04-.09,.37-.4,.65-.77,.71-.36,.08-.73-.04-.98-.32-1-1-2-2-3-2.99-.75-.74-1.49-1.48-2.24-2.23-.45-.36-.52-1.01-.16-1.46,.05-.06,.1-.11,.16-.16,1.73-1.73,3.47-3.45,5.2-5.18,.36-.44,1.01-.51,1.45-.15,.03,.02,.05,.04,.08,.07,.4,.4,.4,1.06,0,1.46-.02,.02-.05,.04-.07,.06-1.09,1.09-2.18,2.17-3.27,3.26-.07,.07-.14,.12-.22,.18l.02,.07h.28c7.05,0,14.1,0,21.15,0,.57-.08,1.12,.27,1.28,.83v.41Z"/>
</svg>