<svg xmlns="http://www.w3.org/2000/svg" xmlns:xlink="http://www.w3.org/1999/xlink" width="54" height="52" viewBox="0 0 54 52">
  <defs>
    <clipPath id="clip-ICONO">
      <rect width="54" height="52"/>
    </clipPath>
  </defs>
  <g id="ICONO" clip-path="url(#clip-ICONO)">
    <g id="Grupo_26" data-name="Grupo 26" transform="translate(-1147 -9.146)">
      <g id="Elipse_1" data-name="Elipse 1" transform="translate(1152.557 14)" fill="none" stroke="#fff" stroke-width="2">
        <circle cx="21.5" cy="21.5" r="21.5" stroke="none"/>
        <circle cx="21.5" cy="21.5" r="20.5" fill="none"/>
      </g>
      <path id="usuario_1_" data-name="usuario (1)" d="M16.8,13.233a5.654,5.654,0,1,0-6.607,0A10.514,10.514,0,0,0,3,23.192.807.807,0,0,0,3.808,24H23.192A.807.807,0,0,0,24,23.192,10.514,10.514,0,0,0,16.8,13.233ZM9.462,8.654A4.038,4.038,0,1,1,13.5,12.692,4.043,4.043,0,0,1,9.462,8.654ZM4.652,22.385a8.885,8.885,0,0,1,17.7,0Z" transform="translate(1161 21)" fill="#fff"/>
    </g>
  </g>
</svg>
