<?xml version="1.0" encoding="UTF-8"?>
<svg id="Capa_1" data-name="Capa 1" xmlns="http://www.w3.org/2000/svg" viewBox="0 0 35 36">
  <defs>
    <style>
      .cls-1 {
        fill: #fff;
      }
    </style>
  </defs>
  <path id="Trazado_48" data-name="Trazado 48" class="cls-1" d="M33.51,32.64c-.04,.1-.07,.19-.11,.29-.23,.86-.99,1.47-1.88,1.52-1.31,.07-2.63,.02-3.91,.02,.24-.52,.43-1.06,.57-1.61,.11-.66,.13-1.34,.05-2.01-.12-.91-.76-1.66-1.64-1.92-.16-.04-.28-.18-.28-.34-.5-4.65-3.55-8.63-7.9-10.33-.28-.12-.57-.22-.87-.3-.23-.06-.29-.16-.29-.39,.01-1.27,0-2.53,0-3.8V4.52c-.12-1.15,.66-2.19,1.79-2.41,.02,0,.03-.03,.05-.04h12.56c.63,.14,1.18,.53,1.52,1.09,.12,.24,.22,.49,.32,.75v28.74ZM25.36,14.35h3.49c.52,.06,1-.32,1.06-.84,.06-.52-.32-1-.84-1.06-.07,0-.14,0-.21,0h-6.91c-.52-.06-1,.32-1.06,.84-.06,.52,.32,1,.84,1.06,.07,0,.14,0,.21,0,1.14,0,2.28,0,3.42,0h0Zm0,3.8h3.49c.52,.06,1-.32,1.06-.84,.06-.52-.32-1-.84-1.06-.07,0-.14,0-.21,0-2.3,0-4.61,0-6.91,0-.52-.06-1,.32-1.06,.84-.06,.52,.32,1,.84,1.06,.07,0,.14,0,.21,0,1.14,0,2.28,0,3.42,0h0Zm.02-9.5c.39,0,.78,0,1.17,0,.52,0,.95-.42,.95-.95s-.42-.95-.95-.95c-.77,0-1.54,0-2.31,0-.52,0-.95,.42-.95,.95s.42,.95,.95,.95c.38,0,.76,0,1.14,0h0Z"/>
  <path id="Trazado_49" data-name="Trazado 49" class="cls-1" d="M1.03,31.12c.17-.31,.51-.49,.86-.45,7.88,0,15.77,.01,23.65,0,.65,0,.87,.2,.84,.85,0,.45-.06,.9-.19,1.33-.33,.96-1.24,1.61-2.25,1.61-.4,.03-.8,0-1.2,0H3.82c-1.33,.13-2.53-.79-2.75-2.1,0-.02-.02-.03-.04-.05v-1.21Z"/>
  <path id="Trazado_50" data-name="Trazado 50" class="cls-1" d="M12.75,19.27v-2.02h-.63c-.53,.03-.98-.37-1.01-.9,0-.02,0-.03,0-.05,0-.52,.41-.94,.93-.95,.02,0,.05,0,.07,0,1.07,0,2.13,0,3.2,0,.52-.04,.97,.35,1,.87,0,.03,0,.05,0,.08,0,.53-.43,.95-.95,.95-.02,0-.04,0-.06,0h-.62v1.98c5.48,.89,8.73,4.05,9.79,9.53H3.02c.59-5.07,4.65-9.03,9.73-9.49Zm-2.52,4.25c0-.33-.2-.64-.5-.78-.32-.18-.72-.15-1.01,.07-.94,.66-1.72,1.54-2.27,2.55-.27,.45-.13,1.03,.31,1.31,0,0,.01,0,.02,.01,.44,.26,1.01,.12,1.28-.32,.01-.02,.02-.03,.03-.05,.44-.77,1.03-1.44,1.75-1.97,.27-.19,.42-.5,.4-.83h0Zm2.49-.17v-.03c.15,0,.3,0,.44,0,.49-.05,.87-.46,.87-.96,0-.48-.36-.87-.84-.92-.35-.02-.7,0-1.04,.06-.46,.09-.77,.5-.74,.96,.01,.46,.37,.84,.83,.89,.16,0,.32,0,.47,0h0Z"/>
</svg>