<?xml version="1.0" encoding="UTF-8"?>
<svg id="Capa_1" data-name="Capa 1" xmlns="http://www.w3.org/2000/svg" viewBox="0 0 15.5 18">
  <defs>
    <style>
      .cls-1 {
        fill: #fff;
      }
    </style>
  </defs>
  <g id="Grupo_33" data-name="Grupo 33">
    <path id="Trazado_50" data-name="Trazado 50" class="cls-1" d="M1.55,9.27V2.92c-.04-.8,.51-1.51,1.3-1.66,.14-.02,.27-.03,.41-.03h6.14c.12,0,.24,.05,.33,.14,1.52,1.52,3.04,3.04,4.56,4.56,.09,.08,.14,.19,.13,.31,0,3.12,0,6.24,0,9.37,.05,.81-.51,1.52-1.3,1.68-.14,.02-.27,.03-.41,.03H3.27c-.89,.06-1.65-.61-1.72-1.49,0-.08,0-.16,0-.23,0-2.11,0-4.22,0-6.32Zm11.15-2.42l-3.89-3.89v3.89h3.89Zm-5.96,7.28c.42,0,.83,.03,1.23,0,.82,.04,1.53-.59,1.59-1.42,.2-.76-.26-1.54-1.02-1.74-.09-.02-.18-.04-.27-.04-.46-.02-.91-.02-1.37,0-.13,0-.15,.06-.15,.17v3.03Zm-2.05-1.11c.31-.03,.61-.09,.91-.16,.46-.14,.74-.6,.66-1.08-.02-.45-.37-.81-.82-.85-.43-.05-.87,0-1.31-.01-.15,0-.17,.06-.17,.2,0,.93,0,1.87,0,2.81,0,.06,0,.11,0,.17h.71v-1.08Zm5.38-2.12v3.2h.72v-1.29h1.14v-.59h-1.13v-.74h1.21v-.58c-.06,0-.11-.01-.16-.01h-1.78Z"/>
    <path id="Trazado_51" data-name="Trazado 51" class="cls-1" d="M7.48,13.55v-2.05c.39-.13,.83-.03,1.12,.27,.26,.41,.28,.94,.05,1.37-.26,.37-.73,.54-1.17,.41Z"/>
    <path id="Trazado_52" data-name="Trazado 52" class="cls-1" d="M4.7,11.48c.26-.11,.56-.06,.76,.14,.11,.17,.12,.39,.01,.57-.19,.22-.5,.3-.78,.2v-.91Z"/>
  </g>
</svg>