<?xml version="1.0" encoding="UTF-8"?>
<svg id="Capa_1" data-name="Capa 1" xmlns="http://www.w3.org/2000/svg" viewBox="0 0 15.5 15">
  <defs>
    <style>
      .cls-1 {
        fill: #fff;
      }
    </style>
  </defs>
  <g id="Grupo_48" data-name="Grupo 48">
    <path id="Trazado_55" data-name="Trazado 55" class="cls-1" d="M4.37,8.26c1.88,1.76,4.81,1.75,6.69,0,.17,.1,.34,.2,.51,.31,1.97,1.28,3.17,3.46,3.19,5.81,.04,.3-.16,.58-.46,.62-.05,0-.1,0-.15,0H1.27c-.3,.04-.57-.18-.61-.47,0-.04,0-.09,0-.13,0-2.51,1.37-4.83,3.56-6.06,.03-.02,.07-.04,.1-.06,.01,0,.03-.01,.04-.01Z"/>
    <path id="Trazado_56" data-name="Trazado 56" class="cls-1" d="M7.7,.9c2.09,0,3.79,1.69,3.8,3.78-.04,2.08-1.72,3.77-3.8,3.81-2.09,0-3.78-1.7-3.79-3.79,0-2.09,1.7-3.79,3.79-3.8Z"/>
  </g>
</svg>