<svg xmlns="http://www.w3.org/2000/svg" xmlns:xlink="http://www.w3.org/1999/xlink" width="28.7" height="21.763" viewBox="0 0 28.7 21.763">
  <defs>
    <clipPath id="clip-path">
      <rect id="Rect치ngulo_48" data-name="Rect치ngulo 48" width="28.7" height="21.763" fill="none" stroke="#f7f7f7" stroke-width="0.5"/>
    </clipPath>
    <clipPath id="clip-path-2">
      <rect id="Rect치ngulo_49" data-name="Rect치ngulo 49" width="21.839" height="15.792" fill="none" stroke="#f7f7f7" stroke-width="0.5"/>
    </clipPath>
  </defs>
  <g id="Grupo_121" data-name="Grupo 121" transform="translate(-12.338 -13.778)">
    <g id="Grupo_111" data-name="Grupo 111" transform="translate(12.338 13.778)" opacity="0.35">
      <g id="Grupo_110" data-name="Grupo 110">
        <g id="Grupo_109" data-name="Grupo 109" clip-path="url(#clip-path)">
          <path id="Trazado_31" data-name="Trazado 31" d="M108.918,338.752a3.19,3.19,0,0,1,.574-1.347,2.642,2.642,0,0,1,1.982-1.006c.093-.005.187-.005.28-.005q11.516,0,23.035,0a2.7,2.7,0,0,1,2.292,1.064,2.784,2.784,0,0,1,.537,1.759q0,7.891-.006,15.781a4.878,4.878,0,0,1-.121,1.246,2.567,2.567,0,0,1-2.367,1.9c-.092.007-.185.009-.279.009q-11.576,0-23.149,0a2.6,2.6,0,0,1-2.508-1.512,5.631,5.631,0,0,1-.271-.846Zm14.365-.843h-8.877c-1,0-2.006,0-3.009,0a.932.932,0,0,0-.989.66,1.839,1.839,0,0,0-.044.482q0,8.22,0,16.443c0,.075,0,.152,0,.229a.917.917,0,0,0,.889.907c.1.009.209.007.313.007q11.7,0,23.4,0a3.339,3.339,0,0,0,.429-.02.911.911,0,0,0,.77-.808c.009-.1.009-.209.009-.315V339.054c0-.077,0-.152,0-.229a.912.912,0,0,0-.887-.907c-.114-.009-.229-.009-.343-.009H123.283" transform="translate(-108.918 -336.391)" stroke="#f7f7f7" stroke-width="0.5"/>
        </g>
      </g>
    </g>
    <g id="Grupo_114" data-name="Grupo 114" transform="translate(15.765 16.807)" opacity="0.35">
      <g id="Grupo_113" data-name="Grupo 113">
        <g id="Grupo_112" data-name="Grupo 112" clip-path="url(#clip-path-2)">
          <path id="Trazado_32" data-name="Trazado 32" d="M112.475,341.192v12.644h-1.687V338.044c.117.073.216.132.313.2q5.1,3.309,10.191,6.624a.662.662,0,0,0,.834,0q5.087-3.323,10.189-6.625c.093-.061.187-.117.311-.2v15.79h-1.678V341.2c-.132.077-.216.123-.3.174-2.514,1.633-5.033,3.254-7.534,4.9a2.323,2.323,0,0,1-2.809,0c-2.5-1.651-5.022-3.271-7.534-4.9-.077-.051-.158-.1-.3-.181" transform="translate(-110.788 -338.045)" stroke="#f7f7f7" stroke-width="0.5"/>
        </g>
      </g>
    </g>
  </g>
</svg>
