<svg xmlns="http://www.w3.org/2000/svg" xmlns:xlink="http://www.w3.org/1999/xlink" width="39" height="39" viewBox="0 0 39 39">
  <defs>
    <clipPath id="clip-path">
      <rect id="Rectángulo_4" data-name="Rectángulo 4" width="27.938" height="37.302" fill="#b7b7b7"/>
    </clipPath>
    <clipPath id="clip-Icono-candado">
      <rect width="39" height="39"/>
    </clipPath>
  </defs>
  <g id="Icono-candado" clip-path="url(#clip-Icono-candado)">
    <rect width="39" height="39" fill="rgba(255,255,255,0)"/>
    <g id="Grupo_21" data-name="Grupo 21" transform="translate(6 1)">
      <g id="Grupo_3" data-name="Grupo 3" clip-path="url(#clip-path)">
        <path id="Trazado_2" data-name="Trazado 2" d="M3.5,15.063c0-.1,0-.248,0-.4.009-1.6-.04-3.2.038-4.8A10.456,10.456,0,0,1,24.3,8.791a13.673,13.673,0,0,1,.136,1.965c.02,1.315.006,2.631.006,3.946v.387a11.349,11.349,0,0,1,1.275.3,3.4,3.4,0,0,1,2.217,3.346c.012,1.728,0,3.456,0,5.185q0,4.856,0,9.711a3.36,3.36,0,0,1-1.974,3.311,3.751,3.751,0,0,1-1.525.339q-10.465.033-20.929.01a3.424,3.424,0,0,1-3.5-3.583c-.014-2.012,0-4.024,0-6.036q0-4.43,0-8.86A3.378,3.378,0,0,1,2.049,15.47a10.134,10.134,0,0,1,1.45-.408m10.47,2.423H3.775c-1.072,0-1.441.365-1.442,1.436q0,7.312,0,14.625c0,1.041.386,1.424,1.423,1.424H24.183c1.037,0,1.423-.383,1.424-1.424q0-7.332,0-14.663c0-1.02-.384-1.4-1.4-1.4H13.969M22.1,15.138c0-1.708.047-3.372-.009-5.033a8.13,8.13,0,0,0-16.253.427c-.014,1.406,0,2.812,0,4.218,0,.124.014.248.023.388Z" transform="translate(-0.001 0)" fill="#b7b7b7"/>
        <path id="Trazado_3" data-name="Trazado 3" d="M103.951,211.481c0-.348-.02-.7.006-1.044.021-.277-.088-.394-.334-.5a3.478,3.478,0,0,1,.3-6.419,3.493,3.493,0,0,1,4.417,1.938,3.456,3.456,0,0,1-1.826,4.517.364.364,0,0,0-.249.4c.01.735.009,1.47,0,2.2a1.162,1.162,0,1,1-2.319-.013c0-.361,0-.722,0-1.083m1.128-3.518a1.091,1.091,0,0,0,1.192-1.123,1.159,1.159,0,1,0-2.317-.067,1.091,1.091,0,0,0,1.125,1.189" transform="translate(-91.143 -182.331)" fill="#b7b7b7"/>
      </g>
    </g>
  </g>
</svg>
