<svg xmlns="http://www.w3.org/2000/svg" xmlns:xlink="http://www.w3.org/1999/xlink" width="38" height="35" viewBox="0 0 38 35">
  <defs>
    <clipPath id="clip-Icono-imagen">
      <rect width="38" height="35"/>
    </clipPath>
  </defs>
  <g id="Icono-imagen" clip-path="url(#clip-Icono-imagen)">
    <rect width="38" height="35" fill="rgba(255,255,255,0)"/>
    <g id="Grupo_514" data-name="Grupo 514" transform="translate(-7685.123 -2906)">
      <g id="imagen" transform="translate(7687.123 2904.5)">
        <g id="Grupo_452" data-name="Grupo 452" transform="translate(4 7.5)">
          <path id="Trazado_283" data-name="Trazado 283" d="M27.7,30.96H7.112A3.116,3.116,0,0,1,4,27.848V10.612A3.116,3.116,0,0,1,7.112,7.5H27.7a3.116,3.116,0,0,1,3.112,3.112V27.848A3.116,3.116,0,0,1,27.7,30.96ZM7.112,8.936a1.678,1.678,0,0,0-1.676,1.676V27.848a1.678,1.678,0,0,0,1.676,1.676H27.7a1.678,1.678,0,0,0,1.676-1.676V10.612A1.678,1.678,0,0,0,27.7,8.936Z" transform="translate(-4 -7.5)" fill="#fff"/>
        </g>
        <g id="Grupo_453" data-name="Grupo 453" transform="translate(7.296 15.737)">
          <path id="Trazado_284" data-name="Trazado 284" d="M28.469,36.576H12.561A1.675,1.675,0,0,1,11.2,33.917L17.517,25.2a1.2,1.2,0,0,1,1.939,0l3.354,4.63,1.059-1.462a1.2,1.2,0,0,1,1.939,0l4.018,5.548a1.676,1.676,0,0,1-1.357,2.659ZM18.486,26.31l-6.119,8.45a.239.239,0,0,0,.194.379H28.469a.239.239,0,0,0,.194-.38l-3.825-5.282-1.06,1.463a1.2,1.2,0,0,1-1.939,0Z" transform="translate(-10.884 -24.705)" fill="#fff"/>
        </g>
        <g id="Grupo_454" data-name="Grupo 454" transform="translate(20.757 10.373)">
          <path id="Trazado_285" data-name="Trazado 285" d="M42.591,20.682a3.591,3.591,0,1,1,3.591-3.591A3.595,3.595,0,0,1,42.591,20.682Zm0-5.745a2.154,2.154,0,1,0,2.154,2.154A2.157,2.157,0,0,0,42.591,14.936Z" transform="translate(-39 -13.5)" fill="#fff"/>
        </g>
      </g>
    </g>
  </g>
</svg>
