<svg xmlns="http://www.w3.org/2000/svg" xmlns:xlink="http://www.w3.org/1999/xlink" width="39" height="39" viewBox="0 0 39 39">
  <defs>
    <clipPath id="clip-path">
      <rect id="Rectángulo_3" data-name="Rectángulo 3" width="32.584" height="32.647" fill="#b7b7b7"/>
    </clipPath>
    <clipPath id="clip-Icono-usuario">
      <rect width="39" height="39"/>
    </clipPath>
  </defs>
  <g id="Icono-usuario" clip-path="url(#clip-Icono-usuario)">
    <rect width="39" height="39" fill="rgba(255,255,255,0)"/>
    <g id="Grupo_20" data-name="Grupo 20" transform="translate(3 3)">
      <g id="Grupo_1" data-name="Grupo 1" clip-path="url(#clip-path)">
        <path id="Trazado_1" data-name="Trazado 1" d="M21.567,15.824a37.994,37.994,0,0,1,3.623,1.939,16.026,16.026,0,0,1,7.393,13.445,1.262,1.262,0,0,1-1.41,1.438H1.408A1.27,1.27,0,0,1,0,31.241,16.337,16.337,0,0,1,10.738,16.065c.122-.043.24-.1.4-.16A8.734,8.734,0,0,1,7.541,8.273a8.393,8.393,0,0,1,2.841-5.965A8.782,8.782,0,1,1,21.567,15.824M30,30.118a13.743,13.743,0,0,0-27.379,0ZM10.026,8.759a6.267,6.267,0,1,0,6.315-6.248,6.285,6.285,0,0,0-6.315,6.248" transform="translate(0 0)" fill="#b7b7b7"/>
      </g>
    </g>
  </g>
</svg>
