<svg xmlns="http://www.w3.org/2000/svg" xmlns:xlink="http://www.w3.org/1999/xlink" width="35" height="33" viewBox="0 0 35 33">
  <defs>
    <clipPath id="clip-Icono-editar">
      <rect width="35" height="33"/>
    </clipPath>
  </defs>
  <g id="Icono-editar" clip-path="url(#clip-Icono-editar)">
    <rect width="35" height="33" fill="rgba(255,255,255,0)"/>
    <g id="Grupo_513" data-name="Grupo 513" transform="translate(-7736.179 -2823)">
      <g id="editar" transform="translate(7743.179 2828.996)">
        <g id="Grupo_459" data-name="Grupo 459" transform="translate(0 1.55)">
          <g id="Grupo_458" data-name="Grupo 458">
            <path id="Trazado_286" data-name="Trazado 286" d="M17.778,43.412a.773.773,0,0,0-.773.773v7.729a.773.773,0,0,1-.773.773H2.319a.773.773,0,0,1-.773-.773V36.456a.773.773,0,0,1,.773-.773h9.275a.773.773,0,1,0,0-1.546H2.319A2.319,2.319,0,0,0,0,36.456V51.915a2.319,2.319,0,0,0,2.319,2.319H16.232a2.319,2.319,0,0,0,2.319-2.319V44.185A.773.773,0,0,0,17.778,43.412Z" transform="translate(0 -34.137)" fill="#fff"/>
          </g>
        </g>
        <g id="Grupo_461" data-name="Grupo 461" transform="translate(4.638 0.004)">
          <g id="Grupo_460" data-name="Grupo 460">
            <path id="Trazado_287" data-name="Trazado 287" d="M118.547.87a2.959,2.959,0,0,0-4.185,0l-10.181,10.18a.781.781,0,0,0-.186.3l-1.546,4.638a.773.773,0,0,0,.733,1.017.785.785,0,0,0,.244-.039l4.638-1.546a.773.773,0,0,0,.3-.187L118.547,5.055A2.959,2.959,0,0,0,118.547.87Zm-1.093,3.092L107.405,14.011l-3,1,1-3L115.455,1.967a1.412,1.412,0,1,1,2,2Z" transform="translate(-102.409 -0.004)" fill="#fff"/>
          </g>
        </g>
      </g>
    </g>
  </g>
</svg>
