<svg xmlns="http://www.w3.org/2000/svg" xmlns:xlink="http://www.w3.org/1999/xlink" width="38" height="38" viewBox="0 0 38 38">
  <defs>
    <clipPath id="clip-Icono-coorsa">
      <rect width="38" height="38"/>
    </clipPath>
  </defs>
  <g id="Icono-coorsa" clip-path="url(#clip-Icono-coorsa)">
    <rect width="38" height="38" fill="rgba(255,255,255,0)"/>
    <g id="Grupo_22" data-name="Grupo 22" transform="translate(-2341.891 -4256.386)">
      <path id="Trazado_111" data-name="Trazado 111" d="M2402.638,4393.4c4.351-6.727-.087,0,4.341-6.673a4.476,4.476,0,0,0,.978-2.353,3.407,3.407,0,0,0-.775-1.884,15.071,15.071,0,0,1-1.154-2.169.319.319,0,0,0-.3.123c-6.839,11.321-9.418,15.178-9.832,15.8a.039.039,0,0,0,.044.06C2396.76,4396.051,2402.408,4393.755,2402.638,4393.4Z" transform="translate(-44.688 -105.089)" fill="#fff" fill-rule="evenodd"/>
      <path id="Trazado_112" data-name="Trazado 112" d="M2503.15,4340.2c-3.3-7.408-7.132-15.7-10.683-23.512a.168.168,0,0,0-.292-.025c-1.108,1.636-2.5,3.981-3.22,5.156-.273.444.485,2.038.78,2.619,1.328,2.609,2.567,4.985,3.976,7.55a12.628,12.628,0,0,0,1.094,1.577c2.876,3.483,3.052,4.024,5.55,6.8a.34.34,0,0,0,.173.1c.4,0,1.868.027,2.475,0A.189.189,0,0,0,2503.15,4340.2Z" transform="translate(-126.184 -49.244)" fill="#fff" fill-rule="evenodd"/>
      <path id="Trazado_113" data-name="Trazado 113" d="M2363.58,4260.748a3.462,3.462,0,0,1-1.282.44,2.188,2.188,0,0,1-.887-.113,2.47,2.47,0,0,0-1.931.2,6.159,6.159,0,0,0-1.77,1.479c-1.547,1.785-11.465,25.606-12.814,28.38a.053.053,0,0,0,.049.078c.5-.005,2.96.027,2.986-.009,4.355-6.067,14.524-23.642,16.928-26.957,1.041-1.437,1.465-1.545,2.556-.84a.058.058,0,0,0,.088-.04A2.589,2.589,0,0,0,2363.58,4260.748Z" fill="#fff" fill-rule="evenodd"/>
    </g>
  </g>
</svg>
