<svg xmlns="http://www.w3.org/2000/svg" xmlns:xlink="http://www.w3.org/1999/xlink" width="165" height="63" viewBox="0 0 165 63">
  <defs>
    <clipPath id="clip-LOGO_CONTROL_INTERNO">
      <rect width="165" height="63"/>
    </clipPath>
  </defs>
  <g id="LOGO_CONTROL_INTERNO" data-name="LOGO CONTROL INTERNO" clip-path="url(#clip-LOGO_CONTROL_INTERNO)">
    <g id="Grupo_126" data-name="Grupo 126" transform="translate(-1171.217 -268.163)">
      <g id="Grupo_118" data-name="Grupo 118" transform="translate(1232.468 317.111)">
        <path id="Trazado_242" data-name="Trazado 242" d="M1466.854,492.065a1.89,1.89,0,1,0-.765,3.613,1.919,1.919,0,0,0,.758-.158,2.188,2.188,0,0,0,.66-.432l.407.442a2.741,2.741,0,0,1-.863.573,2.581,2.581,0,0,1-2.282-.127,2.48,2.48,0,0,1-1.257-2.18,2.418,2.418,0,0,1,.341-1.261,2.46,2.46,0,0,1,.93-.9,2.692,2.692,0,0,1,2.293-.137,2.458,2.458,0,0,1,.832.544l-.4.484A2.024,2.024,0,0,0,1466.854,492.065Z" transform="translate(-1463.512 -489.927)" fill="#fff"/>
        <path id="Trazado_243" data-name="Trazado 243" d="M1508.061,491.633a2.483,2.483,0,0,1,.937.9,2.4,2.4,0,0,1,.344,1.261,2.436,2.436,0,0,1-.344,1.267,2.493,2.493,0,0,1-.937.913,2.71,2.71,0,0,1-2.605,0,2.491,2.491,0,0,1-.937-.913,2.438,2.438,0,0,1-.344-1.267,2.4,2.4,0,0,1,.344-1.261,2.49,2.49,0,0,1,.934-.9,2.743,2.743,0,0,1,2.609,0Zm-2.247.527a1.917,1.917,0,0,0-.7.685,1.876,1.876,0,0,0,0,1.906,1.938,1.938,0,0,0,.7.692,1.855,1.855,0,0,0,.952.256,1.818,1.818,0,0,0,.944-.256,1.931,1.931,0,0,0,.688-.692,1.9,1.9,0,0,0,0-1.906,1.91,1.91,0,0,0-.688-.685,1.837,1.837,0,0,0-.944-.253A1.875,1.875,0,0,0,1505.813,492.16Z" transform="translate(-1496.071 -489.927)" fill="#fff"/>
        <path id="Trazado_244" data-name="Trazado 244" d="M1552.5,491.633a2.482,2.482,0,0,1,.937.9,2.4,2.4,0,0,1,.344,1.261,2.436,2.436,0,0,1-.344,1.267,2.491,2.491,0,0,1-.937.913,2.711,2.711,0,0,1-2.605,0,2.49,2.49,0,0,1-.937-.913,2.438,2.438,0,0,1-.344-1.267,2.4,2.4,0,0,1,.344-1.261,2.487,2.487,0,0,1,.934-.9,2.743,2.743,0,0,1,2.609,0Zm-2.247.527a1.918,1.918,0,0,0-.7.685,1.877,1.877,0,0,0,0,1.906,1.938,1.938,0,0,0,.7.692,1.854,1.854,0,0,0,.952.256,1.818,1.818,0,0,0,.944-.256,1.931,1.931,0,0,0,.688-.692,1.9,1.9,0,0,0,0-1.906,1.91,1.91,0,0,0-.688-.685,1.837,1.837,0,0,0-.944-.253A1.874,1.874,0,0,0,1550.249,492.16Z" transform="translate(-1531.651 -489.927)" fill="#fff"/>
        <path id="Trazado_245" data-name="Trazado 245" d="M1599.174,496.429l-.976-1.545c-.112.009-.2.014-.274.014h-1.25v1.531H1596v-4.915h1.924a2.167,2.167,0,0,1,1.443.432,1.519,1.519,0,0,1,.509,1.225,1.743,1.743,0,0,1-.277,1,1.555,1.555,0,0,1-.8.59l1.144,1.664Zm-1.25-2.142a1.487,1.487,0,0,0,.969-.277,1,1,0,0,0,.337-.818.961.961,0,0,0-.337-.8,1.516,1.516,0,0,0-.969-.27h-1.25v2.163Z" transform="translate(-1569.598 -490.096)" fill="#fff"/>
        <path id="Trazado_246" data-name="Trazado 246" d="M1638.228,491.988a2.41,2.41,0,0,0-.678-.109,1.25,1.25,0,0,0-.684.165.513.513,0,0,0-.256.453.6.6,0,0,0,.155.425,1.092,1.092,0,0,0,.379.26q.225.095.625.221a7.077,7.077,0,0,1,.807.295,1.4,1.4,0,0,1,.527.418,1.154,1.154,0,0,1,.218.734,1.23,1.23,0,0,1-.228.738,1.464,1.464,0,0,1-.639.488,2.424,2.424,0,0,1-.945.172,2.745,2.745,0,0,1-1.053-.211,2.859,2.859,0,0,1-.885-.562l.3-.583a2.535,2.535,0,0,0,.79.53,2.178,2.178,0,0,0,.853.186,1.365,1.365,0,0,0,.776-.193.6.6,0,0,0,.285-.523.61.61,0,0,0-.154-.428,1.091,1.091,0,0,0-.39-.267,6.63,6.63,0,0,0-.636-.218,6.5,6.5,0,0,1-.8-.288,1.381,1.381,0,0,1-.523-.414,1.141,1.141,0,0,1-.214-.723,1.16,1.16,0,0,1,.218-.7,1.375,1.375,0,0,1,.611-.463,2.389,2.389,0,0,1,.913-.162,2.965,2.965,0,0,1,.868.13,2.91,2.91,0,0,1,.754.348l-.281.6A2.824,2.824,0,0,0,1638.228,491.988Z" transform="translate(-1601.282 -489.871)" fill="#fff"/>
        <path id="Trazado_247" data-name="Trazado 247" d="M1677.043,496.429l-.519-1.194h-2.591l-.512,1.194h-.709l2.183-4.915h.7l2.177,4.915Zm-2.844-1.8h2.064l-1.039-2.387Z" transform="translate(-1631.022 -490.096)" fill="#fff"/>
        <path id="Trazado_248" data-name="Trazado 248" d="M1744.134,491.514h.8l1.8,3.455,1.784-3.455h.807v4.915h-.632l-.007-3.925-1.748,3.406h-.414l-1.763-3.406v3.925h-.625Z" transform="translate(-1688.212 -490.096)" fill="#fff"/>
        <path id="Trazado_249" data-name="Trazado 249" d="M1793.82,485.815h3.412v.611h-2.739v1.517h2.451v.611h-2.451v1.566h2.823v.611h-3.5Zm2.149-1.418.674.295-.87.688-.555-.07Z" transform="translate(-1727.996 -484.397)" fill="#fff"/>
        <path id="Trazado_250" data-name="Trazado 250" d="M1830.7,491.514h.787l1.292,1.833,1.3-1.833h.793l-1.664,2.359,1.8,2.556h-.808l-1.425-1.987-1.411,1.987h-.793l1.8-2.528Z" transform="translate(-1757.423 -490.096)" fill="#fff"/>
        <path id="Trazado_251" data-name="Trazado 251" d="M1873.875,491.514h.674v4.915h-.674Z" transform="translate(-1792.098 -490.096)" fill="#fff"/>
        <path id="Trazado_252" data-name="Trazado 252" d="M1902.06,492.065a1.892,1.892,0,0,0-2.408.772,1.894,1.894,0,0,0,.688,2.588,1.868,1.868,0,0,0,.955.253,1.919,1.919,0,0,0,.759-.158,2.2,2.2,0,0,0,.66-.432l.407.442a2.745,2.745,0,0,1-.863.573,2.581,2.581,0,0,1-2.282-.127,2.479,2.479,0,0,1-1.257-2.18,2.418,2.418,0,0,1,.34-1.261,2.46,2.46,0,0,1,.931-.9,2.615,2.615,0,0,1,1.3-.33,2.642,2.642,0,0,1,.994.193,2.458,2.458,0,0,1,.832.544l-.4.484A2.028,2.028,0,0,0,1902.06,492.065Z" transform="translate(-1811.99 -489.927)" fill="#fff"/>
        <path id="Trazado_253" data-name="Trazado 253" d="M1943.267,491.633a2.481,2.481,0,0,1,.937.9,2.4,2.4,0,0,1,.344,1.261,2.436,2.436,0,0,1-.344,1.267,2.49,2.49,0,0,1-.937.913,2.711,2.711,0,0,1-2.606,0,2.487,2.487,0,0,1-.937-.913,2.436,2.436,0,0,1-.344-1.267,2.4,2.4,0,0,1,.344-1.261,2.484,2.484,0,0,1,.934-.9,2.743,2.743,0,0,1,2.609,0Zm-2.247.527a1.916,1.916,0,0,0-.7.685,1.879,1.879,0,0,0,0,1.906,1.936,1.936,0,0,0,.7.692,1.854,1.854,0,0,0,.952.256,1.818,1.818,0,0,0,.944-.256,1.933,1.933,0,0,0,.688-.692,1.9,1.9,0,0,0,0-1.906,1.913,1.913,0,0,0-.688-.685,1.838,1.838,0,0,0-.944-.253A1.874,1.874,0,0,0,1941.02,492.16Z" transform="translate(-1844.549 -489.927)" fill="#fff"/>
      </g>
      <g id="Grupo_123" data-name="Grupo 123" transform="translate(1174.967 275.478)">
        <g id="Grupo_119" data-name="Grupo 119" transform="translate(0 0)">
          <path id="Trazado_254" data-name="Trazado 254" d="M1177.679,319.761l.034-32.107c0-.364.1-8.915,7.916-9.467h29.153a11.671,11.671,0,0,0-3.618,8.08,1.355,1.355,0,0,0,1.327,1.382h.028a1.355,1.355,0,0,0,1.354-1.327c.006-.312.244-7.642,7.922-8.138a1.355,1.355,0,0,0-.088-2.707h-36.125c-.03,0-.06,0-.09,0-8.334.555-10.506,8.211-10.49,12.174l-.037,34.186c0,.012,0,.024,0,.036a1.348,1.348,0,0,0,1.92,1.234l14.8-6.838a1.355,1.355,0,0,0,.611-1.9,13.547,13.547,0,0,1-.955-10.637,15.144,15.144,0,0,1,7.253-9.091,14.6,14.6,0,0,1,15.073,1.22c4.448,3.294,6.661,9.836,5.381,15.91-1.044,4.952-4.228,8.376-8.737,9.394a1.355,1.355,0,1,0,.6,2.643c5.587-1.262,9.52-5.445,10.791-11.479,1.491-7.075-1.149-14.742-6.42-18.646a17.362,17.362,0,0,0-17.927-1.451,17.66,17.66,0,0,0-8.608,10.725,16.485,16.485,0,0,0,.535,11.435l-11.6,5.361" transform="translate(-1174.967 -275.478)" fill="#fff"/>
        </g>
        <g id="Grupo_122" data-name="Grupo 122" transform="translate(22.164 24.172)">
          <g id="Grupo_121" data-name="Grupo 121">
            <g id="Grupo_120" data-name="Grupo 120">
              <path id="Trazado_255" data-name="Trazado 255" d="M1299.544,403.682a3.682,3.682,0,0,1-2.411-6.467,8.31,8.31,0,1,0,5.193,5.193A3.673,3.673,0,0,1,1299.544,403.682Z" transform="translate(-1286.187 -396.773)" fill="#fff"/>
            </g>
          </g>
        </g>
      </g>
      <g id="Grupo_124" data-name="Grupo 124" transform="translate(1232.638 292.717)">
        <path id="Trazado_256" data-name="Trazado 256" d="M1464.362,361.986h4.832v18.508h-4.832Z" transform="translate(-1464.362 -361.986)" fill="#fff"/>
        <path id="Trazado_257" data-name="Trazado 257" d="M1517.3,383.735a5.534,5.534,0,0,1,1.412,3.987v9h-4.673v-7.657a2.679,2.679,0,0,0-.66-1.914,2.318,2.318,0,0,0-1.769-.7,2.712,2.712,0,0,0-1.914.766,3.113,3.113,0,0,0-.885,1.954v7.551h-4.7V382.441h4.7v2.324a5.078,5.078,0,0,1,1.967-1.875,5.825,5.825,0,0,1,2.759-.634A4.963,4.963,0,0,1,1517.3,383.735Z" transform="translate(-1496.187 -378.217)" fill="#fff"/>
        <path id="Trazado_258" data-name="Trazado 258" d="M1594.877,383.574a7.061,7.061,0,0,1-1.821.7,8.787,8.787,0,0,1-2.086.251,4.822,4.822,0,0,1-3.419-1.215,4.353,4.353,0,0,1-1.307-3.353v-6.125h-1.98v-3.116h1.98v-3.96h4.673v3.96h3.7v3.116h-3.7v5.386q0,1.5,1.241,1.5a4.581,4.581,0,0,0,1.821-.475Z" transform="translate(-1560.369 -365.805)" fill="#fff"/>
        <path id="Trazado_259" data-name="Trazado 259" d="M1652.848,384.449a8.079,8.079,0,0,1,1.875,5.65c0,.37-.009.651-.026.845h-9.927a3.431,3.431,0,0,0,1.189,1.862,3.286,3.286,0,0,0,2.059.647,4.46,4.46,0,0,0,1.782-.369,5.026,5.026,0,0,0,1.571-1.083l2.455,2.455a7.231,7.231,0,0,1-2.679,1.888,9.252,9.252,0,0,1-3.551.647,8.54,8.54,0,0,1-4.013-.9,6.237,6.237,0,0,1-2.627-2.535,7.692,7.692,0,0,1-.911-3.8,7.88,7.88,0,0,1,.924-3.868,6.383,6.383,0,0,1,2.614-2.587,8.108,8.108,0,0,1,3.908-.911A6.878,6.878,0,0,1,1652.848,384.449Zm-2.693,3.987a2.751,2.751,0,0,0-.726-1.993,2.762,2.762,0,0,0-3.776-.013,3.676,3.676,0,0,0-.99,2.007Z" transform="translate(-1605.033 -378.323)" fill="#fff"/>
        <path id="Trazado_260" data-name="Trazado 260" d="M1729.859,382.916a5.378,5.378,0,0,1,2.68-.66v4.3a7.052,7.052,0,0,0-.713-.027,4.348,4.348,0,0,0-2.693.779,2.988,2.988,0,0,0-1.188,2.125v7.287h-4.7V382.441h4.7v2.376A5.15,5.15,0,0,1,1729.859,382.916Z" transform="translate(-1671.655 -378.217)" fill="#fff"/>
        <path id="Trazado_261" data-name="Trazado 261" d="M1790.884,383.735a5.534,5.534,0,0,1,1.412,3.987v9h-4.673v-7.657a2.68,2.68,0,0,0-.66-1.914,2.318,2.318,0,0,0-1.769-.7,2.713,2.713,0,0,0-1.914.766,3.11,3.11,0,0,0-.884,1.954v7.551h-4.7V382.441h4.7v2.324a5.077,5.077,0,0,1,1.967-1.875,5.826,5.826,0,0,1,2.759-.634A4.963,4.963,0,0,1,1790.884,383.735Z" transform="translate(-1715.254 -378.217)" fill="#fff"/>
        <path id="Trazado_262" data-name="Trazado 262" d="M1870.528,383.3a6.663,6.663,0,0,1,2.746,2.561,7.99,7.99,0,0,1,0,7.657,6.66,6.66,0,0,1-2.746,2.561,9.647,9.647,0,0,1-8.184,0,6.567,6.567,0,0,1-2.733-2.561,8.087,8.087,0,0,1,0-7.657,6.569,6.569,0,0,1,2.733-2.561,9.647,9.647,0,0,1,8.184,0Zm-6.31,3.868a3.776,3.776,0,0,0-.844,2.561,3.816,3.816,0,0,0,.844,2.587,2.791,2.791,0,0,0,2.218.977,2.819,2.819,0,0,0,2.244-.977,3.815,3.815,0,0,0,.845-2.587,3.741,3.741,0,0,0-.858-2.561,2.831,2.831,0,0,0-2.231-.977A2.792,2.792,0,0,0,1864.218,387.168Z" transform="translate(-1780.074 -378.323)" fill="#fff"/>
        <path id="Trazado_263" data-name="Trazado 263" d="M1946.259,433.634a2.215,2.215,0,0,1,.634,1.637,2.259,2.259,0,0,1-.634,1.65,2.19,2.19,0,0,1-1.637.647,2.156,2.156,0,0,1-1.61-.647,2.467,2.467,0,0,1-.014-3.287,2.171,2.171,0,0,1,1.624-.634A2.215,2.215,0,0,1,1946.259,433.634Z" transform="translate(-1847.119 -418.848)" fill="#fff"/>
      </g>
      <g id="Grupo_125" data-name="Grupo 125" transform="translate(1232.573 275.857)">
        <path id="Trazado_264" data-name="Trazado 264" d="M1470.542,281.759a2.953,2.953,0,0,0-1.342-.337,2.887,2.887,0,0,0-2.546,1.486,3.075,3.075,0,0,0-.385,1.528,3.111,3.111,0,0,0,.385,1.534,2.91,2.91,0,0,0,1.06,1.1,2.828,2.828,0,0,0,1.487.406,3.109,3.109,0,0,0,1.314-.309,4.137,4.137,0,0,0,1.19-.833l1.28,1.39a5.8,5.8,0,0,1-1.81,1.266,5.042,5.042,0,0,1-2.085.468,5.138,5.138,0,0,1-2.574-.654,4.774,4.774,0,0,1-1.817-1.8,4.993,4.993,0,0,1-.661-2.546,4.808,4.808,0,0,1,2.526-4.294,5.324,5.324,0,0,1,2.608-.647,5.436,5.436,0,0,1,3.8,1.61l-1.266,1.555A3.662,3.662,0,0,0,1470.542,281.759Z" transform="translate(-1464.039 -279.096)" fill="#fff"/>
        <path id="Trazado_265" data-name="Trazado 265" d="M1520.642,291.594a3.377,3.377,0,0,1,1.4,1.321,4.2,4.2,0,0,1,0,3.957,3.407,3.407,0,0,1-1.4,1.335,4.784,4.784,0,0,1-4.156,0,3.406,3.406,0,0,1-1.4-1.335,4.2,4.2,0,0,1,0-3.957,3.377,3.377,0,0,1,1.4-1.321,4.85,4.85,0,0,1,4.156,0Zm-3.413,1.858a2.359,2.359,0,0,0,0,2.945,1.862,1.862,0,0,0,2.67,0,2.359,2.359,0,0,0,0-2.945,1.862,1.862,0,0,0-2.67,0Z" transform="translate(-1504.519 -288.387)" fill="#fff"/>
        <path id="Trazado_266" data-name="Trazado 266" d="M1571.594,291.827a2.863,2.863,0,0,1,.736,2.064v4.652h-2.12v-4.032a1.527,1.527,0,0,0-.392-1.108,1.415,1.415,0,0,0-1.067-.406,1.586,1.586,0,0,0-1.239.544,2.01,2.01,0,0,0-.454,1.356v3.647h-2.12v-7.4h2.12v1.294a2.768,2.768,0,0,1,2.56-1.376A2.6,2.6,0,0,1,1571.594,291.827Z" transform="translate(-1544.832 -288.331)" fill="#fff"/>
        <path id="Trazado_267" data-name="Trazado 267" d="M1616.428,291.605a3.451,3.451,0,0,1-.916.378,3.991,3.991,0,0,1-1.011.131,2.392,2.392,0,0,1-1.679-.592,2.178,2.178,0,0,1-.646-1.693V286.4h-1.032v-1.459h1.032v-2.037h2.106v2.037h2.009v1.473h-2.009v3.055q0,.853.674.853a2.384,2.384,0,0,0,1.032-.275Z" transform="translate(-1581.828 -281.806)" fill="#fff"/>
        <path id="Trazado_268" data-name="Trazado 268" d="M1650.662,291.428a2.94,2.94,0,0,1,1.445-.372v2a2.9,2.9,0,0,0-.33-.014,2.188,2.188,0,0,0-1.549.53,1.833,1.833,0,0,0-.571,1.411v3.565h-2.12v-7.4h2.12v1.335A2.693,2.693,0,0,1,1650.662,291.428Z" transform="translate(-1610.97 -288.331)" fill="#fff"/>
        <path id="Trazado_269" data-name="Trazado 269" d="M1682.595,291.594a3.378,3.378,0,0,1,1.4,1.321,4.2,4.2,0,0,1,0,3.957,3.408,3.408,0,0,1-1.4,1.335,4.785,4.785,0,0,1-4.156,0,3.409,3.409,0,0,1-1.4-1.335,4.2,4.2,0,0,1,0-3.957,3.38,3.38,0,0,1,1.4-1.321,4.851,4.851,0,0,1,4.156,0Zm-3.413,1.858a2.36,2.36,0,0,0,0,2.945,1.861,1.861,0,0,0,2.67,0,2.359,2.359,0,0,0,0-2.945,1.862,1.862,0,0,0-2.67,0Z" transform="translate(-1634.198 -288.387)" fill="#fff"/>
        <path id="Trazado_270" data-name="Trazado 270" d="M1727.237,277.381h2.12v10.212h-2.12Z" transform="translate(-1674.787 -277.381)" fill="#fff"/>
      </g>
    </g>
  </g>
</svg>
