<svg xmlns="http://www.w3.org/2000/svg" xmlns:xlink="http://www.w3.org/1999/xlink" width="25.001" height="25.128" viewBox="0 0 25.001 25.128">
  <defs>
    <clipPath id="clip-path">
      <rect id="Rectángulo_44" data-name="Rectángulo 44" width="25.001" height="25.128" fill="none"/>
    </clipPath>
  </defs>
  <g id="Grupo_105" data-name="Grupo 105" opacity="0.35">
    <g id="Grupo_104" data-name="Grupo 104">
      <g id="Grupo_103" data-name="Grupo 103" clip-path="url(#clip-path)">
        <path id="Trazado_29" data-name="Trazado 29" d="M47.813,361.211c-.352-.057-.705-.106-1.057-.172a15.15,15.15,0,0,1-3.881-1.38,25.035,25.035,0,0,1-5.614-3.727,25.858,25.858,0,0,1-7.589-10.862,9.42,9.42,0,0,1-.573-3.315,4.081,4.081,0,0,1,1.173-2.877c.647-.658,1.3-1.314,1.955-1.96a3.081,3.081,0,0,1,1.576-.835h.636a3.709,3.709,0,0,1,1.924,1.222c.969,1,1.971,1.959,2.915,2.977a2.292,2.292,0,0,1,.009,3.219c-.6.667-1.25,1.288-1.889,1.92a.312.312,0,0,0-.088.431A14.652,14.652,0,0,0,39.9,349.43a17.906,17.906,0,0,0,3.452,2.921c.343.218.713.4,1.065.6a.2.2,0,0,0,.291-.046q.816-.83,1.644-1.649a3.082,3.082,0,0,1,1.12-.773,2.3,2.3,0,0,1,2.523.579c1.094,1.064,2.171,2.149,3.243,3.239a2.419,2.419,0,0,1,.156,3.551c-.737.848-1.548,1.636-2.364,2.413a3.541,3.541,0,0,1-2.078.9,1,1,0,0,0-.161.046Zm.489-1.266a2.681,2.681,0,0,0,2-.711q1.1-1.066,2.136-2.2a1.15,1.15,0,0,0-.022-1.732q-1.649-1.7-3.342-3.348a1.084,1.084,0,0,0-1.493-.077,3.09,3.09,0,0,0-.348.31c-.606.6-1.211,1.215-1.819,1.819a1.042,1.042,0,0,1-1.338.218c-.355-.181-.713-.365-1.054-.57a18.848,18.848,0,0,1-4.117-3.415,15.238,15.238,0,0,1-2.847-4.051,1.13,1.13,0,0,1,.293-1.535c.6-.579,1.2-1.16,1.781-1.755a1.222,1.222,0,0,0,.011-1.981l-.035-.035c-1-1.006-2.006-2.016-3.016-3.016a2.026,2.026,0,0,0-.548-.4,1.193,1.193,0,0,0-1.418.355c-.643.627-1.29,1.253-1.9,1.913a3.466,3.466,0,0,0-.647,1,4.233,4.233,0,0,0-.079,2.51,15.991,15.991,0,0,0,1.781,4.6,26.485,26.485,0,0,0,5.4,6.774,24.187,24.187,0,0,0,7.318,4.6,9.648,9.648,0,0,0,3.3.731" transform="translate(-29.098 -336.083)"/>
      </g>
    </g>
  </g>
</svg>
