<svg xmlns="http://www.w3.org/2000/svg" xmlns:xlink="http://www.w3.org/1999/xlink" width="26.205" height="26.22" viewBox="0 0 26.205 26.22">
  <defs>
    <clipPath id="clip-path">
      <rect id="Rect치ngulo_42" data-name="Rect치ngulo 42" width="26.205" height="26.22" fill="none"/>
    </clipPath>
    <clipPath id="clip-path-2">
      <rect id="Rect치ngulo_43" data-name="Rect치ngulo 43" width="17.196" height="16.083" fill="none"/>
    </clipPath>
  </defs>
  <g id="Grupo_128" data-name="Grupo 128" transform="translate(-120 -575)">
    <g id="Grupo_99" data-name="Grupo 99" transform="translate(120 575)" opacity="0.35">
      <g id="Grupo_98" data-name="Grupo 98">
        <g id="Grupo_97" data-name="Grupo 97" clip-path="url(#clip-path)">
          <path id="Trazado_27" data-name="Trazado 27" d="M79.18,362c-.548-.075-1.1-.132-1.644-.231a12.366,12.366,0,0,1-4.057-1.488.671.671,0,0,0-.6-.066c-1.568.493-3.14.973-4.711,1.457-.024.009-.049.013-.073.022a.529.529,0,0,1-.6-.093.548.548,0,0,1-.11-.592c.456-1.642.905-3.285,1.365-4.925a.543.543,0,0,0-.059-.476,12.556,12.556,0,0,1-1.731-4.932,12.808,12.808,0,0,1,2.574-9.726,13.1,13.1,0,0,1,23.213,5.211c.121.555.169,1.129.249,1.693.015.09.033.181.048.271v1.535c-.02.185-.042.368-.062.553A13.144,13.144,0,0,1,82.2,361.8c-.493.086-.993.136-1.49.2Zm-10.6-1.523c.106-.028.17-.04.233-.061q1.844-.566,3.688-1.13c.956-.291.685-.313,1.563.172a11.892,11.892,0,0,0,7.7,1.391,11.581,11.581,0,0,0,6.574-3.271A11.82,11.82,0,0,0,91.9,347.1a11.4,11.4,0,0,0-3.252-6.581,11.823,11.823,0,0,0-10.5-3.578,11.457,11.457,0,0,0-6.209,2.9,12.082,12.082,0,0,0-2.274,15.422,1.021,1.021,0,0,1,.123.892c-.41,1.424-.8,2.853-1.209,4.328" transform="translate(-66.848 -335.786)"/>
        </g>
      </g>
    </g>
    <g id="Grupo_102" data-name="Grupo 102" transform="translate(124 580)" opacity="0.35">
      <g id="Grupo_101" data-name="Grupo 101">
        <g id="Grupo_100" data-name="Grupo 100" clip-path="url(#clip-path-2)">
          <path id="Trazado_28" data-name="Trazado 28" d="M81.354,354.634a10.875,10.875,0,0,1-6.371-2.358,16.243,16.243,0,0,1-5.044-6.523,5.791,5.791,0,0,1,.359-5.462,13.2,13.2,0,0,1,1.01-1.411.558.558,0,0,1,.324-.227,14.593,14.593,0,0,1,1.5-.1.737.737,0,0,1,.628.387,18.349,18.349,0,0,1,1.687,3.291,1.582,1.582,0,0,1-.213,1.462,10.121,10.121,0,0,1-.792,1,.348.348,0,0,0-.082.388,4.6,4.6,0,0,0,1.026,1.574,16.093,16.093,0,0,0,4.046,3.135c.418.233.495.231.81-.125.456-.517.894-1.05,1.319-1.594a1.051,1.051,0,0,1,1.325-.4,5.282,5.282,0,0,1,.76.414c.857.526,1.708,1.061,2.565,1.589.41.251.458.361.368.837a5.5,5.5,0,0,1-1.037,2.446,4.374,4.374,0,0,1-3.113,1.607c-.355.04-.715.046-1.072.068m1.1-6.063c-.108.148-.178.257-.26.354a15.456,15.456,0,0,1-1.272,1.464c-.826.753-1.118.707-1.9.3a14.844,14.844,0,0,1-4.828-3.884,4.491,4.491,0,0,1-.845-1.592,1,1,0,0,1,.258-1.118,6.156,6.156,0,0,0,.676-.8.881.881,0,0,0,.121-1.022c-.431-.812-.859-1.625-1.266-2.45a.523.523,0,0,0-.59-.308.927.927,0,0,0-.859.475c-.268.493-.6.955-.828,1.464a4.5,4.5,0,0,0-.064,3.723,15.691,15.691,0,0,0,4.311,5.922A9.753,9.753,0,0,0,81.98,353.6a3.806,3.806,0,0,0,2.31-.775,3.67,3.67,0,0,0,1.231-2.21.293.293,0,0,0-.126-.229q-1.2-.767-2.4-1.512c-.17-.106-.354-.2-.542-.3" transform="translate(-69.418 -338.552)"/>
        </g>
      </g>
    </g>
  </g>
</svg>
